<svg xmlns="http://www.w3.org/2000/svg" viewBox="0 0 480 480" width="480" height="480">
<g fill="none" stroke="#7FA8FF" stroke-width="2.4" opacity=".85">
<circle cx="240" cy="240" r="212"/>
<circle cx="240" cy="240" r="176"/>
<circle cx="240" cy="240" r="72"/>
<circle cx="240" cy="240" r="58"/>
</g>
<ellipse cx="264.4" cy="117.4" rx="7" ry="14" fill="#4D86FF" opacity=".45" transform="rotate(11.3 264.4 117.4)"/><ellipse cx="309.4" cy="136.1" rx="7" ry="14" fill="#4D86FF" opacity=".45" transform="rotate(33.8 309.4 136.1)"/><ellipse cx="343.9" cy="170.6" rx="7" ry="14" fill="#4D86FF" opacity=".45" transform="rotate(56.3 343.9 170.6)"/><ellipse cx="362.6" cy="215.6" rx="7" ry="14" fill="#4D86FF" opacity=".45" transform="rotate(78.8 362.6 215.6)"/><ellipse cx="362.6" cy="264.4" rx="7" ry="14" fill="#4D86FF" opacity=".45" transform="rotate(101.2 362.6 264.4)"/><ellipse cx="343.9" cy="309.4" rx="7" ry="14" fill="#4D86FF" opacity=".45" transform="rotate(123.7 343.9 309.4)"/><ellipse cx="309.4" cy="343.9" rx="7" ry="14" fill="#4D86FF" opacity=".45" transform="rotate(146.3 309.4 343.9)"/><ellipse cx="264.4" cy="362.6" rx="7" ry="14" fill="#4D86FF" opacity=".45" transform="rotate(168.7 264.4 362.6)"/><ellipse cx="215.6" cy="362.6" rx="7" ry="14" fill="#4D86FF" opacity=".45" transform="rotate(191.3 215.6 362.6)"/><ellipse cx="170.6" cy="343.9" rx="7" ry="14" fill="#4D86FF" opacity=".45" transform="rotate(213.7 170.6 343.9)"/><ellipse cx="136.1" cy="309.4" rx="7" ry="14" fill="#4D86FF" opacity=".45" transform="rotate(236.3 136.1 309.4)"/><ellipse cx="117.4" cy="264.4" rx="7" ry="14" fill="#4D86FF" opacity=".45" transform="rotate(258.8 117.4 264.4)"/><ellipse cx="117.4" cy="215.6" rx="7" ry="14" fill="#4D86FF" opacity=".45" transform="rotate(281.3 117.4 215.6)"/><ellipse cx="136.1" cy="170.6" rx="7" ry="14" fill="#4D86FF" opacity=".45" transform="rotate(303.8 136.1 170.6)"/><ellipse cx="170.6" cy="136.1" rx="7" ry="14" fill="#4D86FF" opacity=".45" transform="rotate(326.3 170.6 136.1)"/><ellipse cx="215.6" cy="117.4" rx="7" ry="14" fill="#4D86FF" opacity=".45" transform="rotate(348.8 215.6 117.4)"/>
<g transform="rotate(0.0 240 240)"><g fill="#9DBBFF" opacity=".9"><ellipse cx="240.0" cy="68.0" rx="9.0" ry="16.0"/><ellipse cx="240.0" cy="108.0" rx="9.0" ry="16.0"/><ellipse cx="220.0" cy="88.0" rx="16.0" ry="9.0"/><ellipse cx="260.0" cy="88.0" rx="16.0" ry="9.0"/><ellipse cx="226.0" cy="74.0" rx="9.0" ry="16.0" transform="rotate(45 226.0 74.0)"/><ellipse cx="254.0" cy="74.0" rx="9.0" ry="16.0" transform="rotate(-45 254.0 74.0)"/><ellipse cx="226.0" cy="102.0" rx="9.0" ry="16.0" transform="rotate(-45 226.0 102.0)"/><ellipse cx="254.0" cy="102.0" rx="9.0" ry="16.0" transform="rotate(45 254.0 102.0)"/><circle cx="240.0" cy="88.0" r="7.0" fill="#4D86FF"/></g></g><g transform="rotate(45.0 240 240)"><g fill="#9DBBFF" opacity=".9"><ellipse cx="240.0" cy="68.0" rx="9.0" ry="16.0"/><ellipse cx="240.0" cy="108.0" rx="9.0" ry="16.0"/><ellipse cx="220.0" cy="88.0" rx="16.0" ry="9.0"/><ellipse cx="260.0" cy="88.0" rx="16.0" ry="9.0"/><ellipse cx="226.0" cy="74.0" rx="9.0" ry="16.0" transform="rotate(45 226.0 74.0)"/><ellipse cx="254.0" cy="74.0" rx="9.0" ry="16.0" transform="rotate(-45 254.0 74.0)"/><ellipse cx="226.0" cy="102.0" rx="9.0" ry="16.0" transform="rotate(-45 226.0 102.0)"/><ellipse cx="254.0" cy="102.0" rx="9.0" ry="16.0" transform="rotate(45 254.0 102.0)"/><circle cx="240.0" cy="88.0" r="7.0" fill="#4D86FF"/></g></g><g transform="rotate(90.0 240 240)"><g fill="#9DBBFF" opacity=".9"><ellipse cx="240.0" cy="68.0" rx="9.0" ry="16.0"/><ellipse cx="240.0" cy="108.0" rx="9.0" ry="16.0"/><ellipse cx="220.0" cy="88.0" rx="16.0" ry="9.0"/><ellipse cx="260.0" cy="88.0" rx="16.0" ry="9.0"/><ellipse cx="226.0" cy="74.0" rx="9.0" ry="16.0" transform="rotate(45 226.0 74.0)"/><ellipse cx="254.0" cy="74.0" rx="9.0" ry="16.0" transform="rotate(-45 254.0 74.0)"/><ellipse cx="226.0" cy="102.0" rx="9.0" ry="16.0" transform="rotate(-45 226.0 102.0)"/><ellipse cx="254.0" cy="102.0" rx="9.0" ry="16.0" transform="rotate(45 254.0 102.0)"/><circle cx="240.0" cy="88.0" r="7.0" fill="#4D86FF"/></g></g><g transform="rotate(135.0 240 240)"><g fill="#9DBBFF" opacity=".9"><ellipse cx="240.0" cy="68.0" rx="9.0" ry="16.0"/><ellipse cx="240.0" cy="108.0" rx="9.0" ry="16.0"/><ellipse cx="220.0" cy="88.0" rx="16.0" ry="9.0"/><ellipse cx="260.0" cy="88.0" rx="16.0" ry="9.0"/><ellipse cx="226.0" cy="74.0" rx="9.0" ry="16.0" transform="rotate(45 226.0 74.0)"/><ellipse cx="254.0" cy="74.0" rx="9.0" ry="16.0" transform="rotate(-45 254.0 74.0)"/><ellipse cx="226.0" cy="102.0" rx="9.0" ry="16.0" transform="rotate(-45 226.0 102.0)"/><ellipse cx="254.0" cy="102.0" rx="9.0" ry="16.0" transform="rotate(45 254.0 102.0)"/><circle cx="240.0" cy="88.0" r="7.0" fill="#4D86FF"/></g></g><g transform="rotate(180.0 240 240)"><g fill="#9DBBFF" opacity=".9"><ellipse cx="240.0" cy="68.0" rx="9.0" ry="16.0"/><ellipse cx="240.0" cy="108.0" rx="9.0" ry="16.0"/><ellipse cx="220.0" cy="88.0" rx="16.0" ry="9.0"/><ellipse cx="260.0" cy="88.0" rx="16.0" ry="9.0"/><ellipse cx="226.0" cy="74.0" rx="9.0" ry="16.0" transform="rotate(45 226.0 74.0)"/><ellipse cx="254.0" cy="74.0" rx="9.0" ry="16.0" transform="rotate(-45 254.0 74.0)"/><ellipse cx="226.0" cy="102.0" rx="9.0" ry="16.0" transform="rotate(-45 226.0 102.0)"/><ellipse cx="254.0" cy="102.0" rx="9.0" ry="16.0" transform="rotate(45 254.0 102.0)"/><circle cx="240.0" cy="88.0" r="7.0" fill="#4D86FF"/></g></g><g transform="rotate(225.0 240 240)"><g fill="#9DBBFF" opacity=".9"><ellipse cx="240.0" cy="68.0" rx="9.0" ry="16.0"/><ellipse cx="240.0" cy="108.0" rx="9.0" ry="16.0"/><ellipse cx="220.0" cy="88.0" rx="16.0" ry="9.0"/><ellipse cx="260.0" cy="88.0" rx="16.0" ry="9.0"/><ellipse cx="226.0" cy="74.0" rx="9.0" ry="16.0" transform="rotate(45 226.0 74.0)"/><ellipse cx="254.0" cy="74.0" rx="9.0" ry="16.0" transform="rotate(-45 254.0 74.0)"/><ellipse cx="226.0" cy="102.0" rx="9.0" ry="16.0" transform="rotate(-45 226.0 102.0)"/><ellipse cx="254.0" cy="102.0" rx="9.0" ry="16.0" transform="rotate(45 254.0 102.0)"/><circle cx="240.0" cy="88.0" r="7.0" fill="#4D86FF"/></g></g><g transform="rotate(270.0 240 240)"><g fill="#9DBBFF" opacity=".9"><ellipse cx="240.0" cy="68.0" rx="9.0" ry="16.0"/><ellipse cx="240.0" cy="108.0" rx="9.0" ry="16.0"/><ellipse cx="220.0" cy="88.0" rx="16.0" ry="9.0"/><ellipse cx="260.0" cy="88.0" rx="16.0" ry="9.0"/><ellipse cx="226.0" cy="74.0" rx="9.0" ry="16.0" transform="rotate(45 226.0 74.0)"/><ellipse cx="254.0" cy="74.0" rx="9.0" ry="16.0" transform="rotate(-45 254.0 74.0)"/><ellipse cx="226.0" cy="102.0" rx="9.0" ry="16.0" transform="rotate(-45 226.0 102.0)"/><ellipse cx="254.0" cy="102.0" rx="9.0" ry="16.0" transform="rotate(45 254.0 102.0)"/><circle cx="240.0" cy="88.0" r="7.0" fill="#4D86FF"/></g></g><g transform="rotate(315.0 240 240)"><g fill="#9DBBFF" opacity=".9"><ellipse cx="240.0" cy="68.0" rx="9.0" ry="16.0"/><ellipse cx="240.0" cy="108.0" rx="9.0" ry="16.0"/><ellipse cx="220.0" cy="88.0" rx="16.0" ry="9.0"/><ellipse cx="260.0" cy="88.0" rx="16.0" ry="9.0"/><ellipse cx="226.0" cy="74.0" rx="9.0" ry="16.0" transform="rotate(45 226.0 74.0)"/><ellipse cx="254.0" cy="74.0" rx="9.0" ry="16.0" transform="rotate(-45 254.0 74.0)"/><ellipse cx="226.0" cy="102.0" rx="9.0" ry="16.0" transform="rotate(-45 226.0 102.0)"/><ellipse cx="254.0" cy="102.0" rx="9.0" ry="16.0" transform="rotate(45 254.0 102.0)"/><circle cx="240.0" cy="88.0" r="7.0" fill="#4D86FF"/></g></g><g transform="rotate(22.5 240 240)"><g fill="#7FA8FF" opacity=".9"><ellipse cx="240.0" cy="130.0" rx="5.4" ry="9.6"/><ellipse cx="240.0" cy="154.0" rx="5.4" ry="9.6"/><ellipse cx="228.0" cy="142.0" rx="9.6" ry="5.4"/><ellipse cx="252.0" cy="142.0" rx="9.6" ry="5.4"/><ellipse cx="231.6" cy="133.6" rx="5.4" ry="9.6" transform="rotate(45 231.6 133.6)"/><ellipse cx="248.4" cy="133.6" rx="5.4" ry="9.6" transform="rotate(-45 248.4 133.6)"/><ellipse cx="231.6" cy="150.4" rx="5.4" ry="9.6" transform="rotate(-45 231.6 150.4)"/><ellipse cx="248.4" cy="150.4" rx="5.4" ry="9.6" transform="rotate(45 248.4 150.4)"/><circle cx="240.0" cy="142.0" r="4.2" fill="#4D86FF"/></g></g><g transform="rotate(67.5 240 240)"><g fill="#7FA8FF" opacity=".9"><ellipse cx="240.0" cy="130.0" rx="5.4" ry="9.6"/><ellipse cx="240.0" cy="154.0" rx="5.4" ry="9.6"/><ellipse cx="228.0" cy="142.0" rx="9.6" ry="5.4"/><ellipse cx="252.0" cy="142.0" rx="9.6" ry="5.4"/><ellipse cx="231.6" cy="133.6" rx="5.4" ry="9.6" transform="rotate(45 231.6 133.6)"/><ellipse cx="248.4" cy="133.6" rx="5.4" ry="9.6" transform="rotate(-45 248.4 133.6)"/><ellipse cx="231.6" cy="150.4" rx="5.4" ry="9.6" transform="rotate(-45 231.6 150.4)"/><ellipse cx="248.4" cy="150.4" rx="5.4" ry="9.6" transform="rotate(45 248.4 150.4)"/><circle cx="240.0" cy="142.0" r="4.2" fill="#4D86FF"/></g></g><g transform="rotate(112.5 240 240)"><g fill="#7FA8FF" opacity=".9"><ellipse cx="240.0" cy="130.0" rx="5.4" ry="9.6"/><ellipse cx="240.0" cy="154.0" rx="5.4" ry="9.6"/><ellipse cx="228.0" cy="142.0" rx="9.6" ry="5.4"/><ellipse cx="252.0" cy="142.0" rx="9.6" ry="5.4"/><ellipse cx="231.6" cy="133.6" rx="5.4" ry="9.6" transform="rotate(45 231.6 133.6)"/><ellipse cx="248.4" cy="133.6" rx="5.4" ry="9.6" transform="rotate(-45 248.4 133.6)"/><ellipse cx="231.6" cy="150.4" rx="5.4" ry="9.6" transform="rotate(-45 231.6 150.4)"/><ellipse cx="248.4" cy="150.4" rx="5.4" ry="9.6" transform="rotate(45 248.4 150.4)"/><circle cx="240.0" cy="142.0" r="4.2" fill="#4D86FF"/></g></g><g transform="rotate(157.5 240 240)"><g fill="#7FA8FF" opacity=".9"><ellipse cx="240.0" cy="130.0" rx="5.4" ry="9.6"/><ellipse cx="240.0" cy="154.0" rx="5.4" ry="9.6"/><ellipse cx="228.0" cy="142.0" rx="9.6" ry="5.4"/><ellipse cx="252.0" cy="142.0" rx="9.6" ry="5.4"/><ellipse cx="231.6" cy="133.6" rx="5.4" ry="9.6" transform="rotate(45 231.6 133.6)"/><ellipse cx="248.4" cy="133.6" rx="5.4" ry="9.6" transform="rotate(-45 248.4 133.6)"/><ellipse cx="231.6" cy="150.4" rx="5.4" ry="9.6" transform="rotate(-45 231.6 150.4)"/><ellipse cx="248.4" cy="150.4" rx="5.4" ry="9.6" transform="rotate(45 248.4 150.4)"/><circle cx="240.0" cy="142.0" r="4.2" fill="#4D86FF"/></g></g><g transform="rotate(202.5 240 240)"><g fill="#7FA8FF" opacity=".9"><ellipse cx="240.0" cy="130.0" rx="5.4" ry="9.6"/><ellipse cx="240.0" cy="154.0" rx="5.4" ry="9.6"/><ellipse cx="228.0" cy="142.0" rx="9.6" ry="5.4"/><ellipse cx="252.0" cy="142.0" rx="9.6" ry="5.4"/><ellipse cx="231.6" cy="133.6" rx="5.4" ry="9.6" transform="rotate(45 231.6 133.6)"/><ellipse cx="248.4" cy="133.6" rx="5.4" ry="9.6" transform="rotate(-45 248.4 133.6)"/><ellipse cx="231.6" cy="150.4" rx="5.4" ry="9.6" transform="rotate(-45 231.6 150.4)"/><ellipse cx="248.4" cy="150.4" rx="5.4" ry="9.6" transform="rotate(45 248.4 150.4)"/><circle cx="240.0" cy="142.0" r="4.2" fill="#4D86FF"/></g></g><g transform="rotate(247.5 240 240)"><g fill="#7FA8FF" opacity=".9"><ellipse cx="240.0" cy="130.0" rx="5.4" ry="9.6"/><ellipse cx="240.0" cy="154.0" rx="5.4" ry="9.6"/><ellipse cx="228.0" cy="142.0" rx="9.6" ry="5.4"/><ellipse cx="252.0" cy="142.0" rx="9.6" ry="5.4"/><ellipse cx="231.6" cy="133.6" rx="5.4" ry="9.6" transform="rotate(45 231.6 133.6)"/><ellipse cx="248.4" cy="133.6" rx="5.4" ry="9.6" transform="rotate(-45 248.4 133.6)"/><ellipse cx="231.6" cy="150.4" rx="5.4" ry="9.6" transform="rotate(-45 231.6 150.4)"/><ellipse cx="248.4" cy="150.4" rx="5.4" ry="9.6" transform="rotate(45 248.4 150.4)"/><circle cx="240.0" cy="142.0" r="4.2" fill="#4D86FF"/></g></g><g transform="rotate(292.5 240 240)"><g fill="#7FA8FF" opacity=".9"><ellipse cx="240.0" cy="130.0" rx="5.4" ry="9.6"/><ellipse cx="240.0" cy="154.0" rx="5.4" ry="9.6"/><ellipse cx="228.0" cy="142.0" rx="9.6" ry="5.4"/><ellipse cx="252.0" cy="142.0" rx="9.6" ry="5.4"/><ellipse cx="231.6" cy="133.6" rx="5.4" ry="9.6" transform="rotate(45 231.6 133.6)"/><ellipse cx="248.4" cy="133.6" rx="5.4" ry="9.6" transform="rotate(-45 248.4 133.6)"/><ellipse cx="231.6" cy="150.4" rx="5.4" ry="9.6" transform="rotate(-45 231.6 150.4)"/><ellipse cx="248.4" cy="150.4" rx="5.4" ry="9.6" transform="rotate(45 248.4 150.4)"/><circle cx="240.0" cy="142.0" r="4.2" fill="#4D86FF"/></g></g><g transform="rotate(337.5 240 240)"><g fill="#7FA8FF" opacity=".9"><ellipse cx="240.0" cy="130.0" rx="5.4" ry="9.6"/><ellipse cx="240.0" cy="154.0" rx="5.4" ry="9.6"/><ellipse cx="228.0" cy="142.0" rx="9.6" ry="5.4"/><ellipse cx="252.0" cy="142.0" rx="9.6" ry="5.4"/><ellipse cx="231.6" cy="133.6" rx="5.4" ry="9.6" transform="rotate(45 231.6 133.6)"/><ellipse cx="248.4" cy="133.6" rx="5.4" ry="9.6" transform="rotate(-45 248.4 133.6)"/><ellipse cx="231.6" cy="150.4" rx="5.4" ry="9.6" transform="rotate(-45 231.6 150.4)"/><ellipse cx="248.4" cy="150.4" rx="5.4" ry="9.6" transform="rotate(45 248.4 150.4)"/><circle cx="240.0" cy="142.0" r="4.2" fill="#4D86FF"/></g></g>
</svg>
